<svg width="123" height="40" viewBox="0 0 123 40" fill="none" xmlns="http://www.w3.org/2000/svg">
<path d="M26.6089 25.038H15.377C11.1868 25.038 7.77765 21.6267 7.77765 17.4339C7.77765 13.241 11.1868 9.82976 15.377 9.82976C19.5672 9.82976 22.9764 13.241 22.9764 17.4339V18.1969C22.9764 20.201 24.6061 21.8298 26.6069 21.8298C28.6077 21.8298 30.2375 20.199 30.2375 18.1969V17.3477C30.2129 13.3928 28.6569 9.68002 25.8545 6.89027C23.0501 4.10053 19.3294 2.56412 15.375 2.56412C7.17905 2.56412 0.512451 9.23489 0.512451 17.4359C0.512451 25.6369 7.17905 32.3077 15.375 32.3077H26.6069C28.6097 32.3077 30.2375 30.6769 30.2375 28.6749C30.2375 26.6728 28.6077 25.0421 26.6069 25.0421L26.6089 25.038Z" fill="#2979FF"/>
<path d="M46.8247 12.2135H44.3938V7.67411C44.3938 6.44077 43.9088 5.8241 42.9387 5.8241C42.4708 5.8241 42.0998 6.00682 41.8259 6.37226C41.552 6.73769 41.4151 7.17735 41.4151 7.69124V12.2135H38.95V3.75141H41.2781V4.71067C41.7118 3.94555 42.4536 3.56298 43.5036 3.56298C44.6791 3.56298 45.5008 4.08829 45.9687 5.13892C46.3454 4.56793 46.7505 4.16252 47.1842 3.92271C47.6179 3.67147 48.1486 3.54585 48.7763 3.54585C49.7806 3.54585 50.5909 3.85419 51.2072 4.47086C51.8348 5.08753 52.1487 6.12673 52.1487 7.58846V12.2135H49.6664V7.63985C49.6664 6.46361 49.2385 5.87549 48.3825 5.87549C47.9146 5.87549 47.538 6.0525 47.2527 6.40651C46.9673 6.74911 46.8247 7.17164 46.8247 7.67411V12.2135Z" fill="#9E9E9E"/>
<path d="M61.9791 7.69124C61.9791 8.05668 61.9449 8.41069 61.8764 8.75328H55.9533C56.0217 9.24434 56.2614 9.63261 56.6723 9.9181C57.0831 10.1922 57.5453 10.3292 58.0589 10.3292C58.9263 10.3292 59.6909 10.0666 60.3528 9.54125L61.4998 11.1343C60.621 11.9794 59.4284 12.4019 57.9219 12.4019C56.5524 12.4019 55.4283 12.0251 54.5495 11.2714C53.6821 10.5062 53.2485 9.41563 53.2485 7.99958C53.2485 6.60636 53.6936 5.52148 54.5837 4.74493C55.4853 3.95697 56.5638 3.56298 57.8192 3.56298C59.0518 3.56298 60.0504 3.92842 60.8151 4.65928C61.5911 5.37873 61.9791 6.38938 61.9791 7.69124ZM58.9662 6.01253C58.6467 5.72704 58.2415 5.58429 57.7508 5.58429C57.26 5.58429 56.8492 5.72704 56.5182 6.01253C56.1872 6.28661 55.9989 6.69201 55.9533 7.22874H59.4284C59.4398 6.69201 59.2858 6.28661 58.9662 6.01253Z" fill="#9E9E9E"/>
<path d="M63.1066 0.23982H65.5717V7.07457L68.0711 3.76854H70.9813V3.92271L67.8828 7.74263L71.4607 12.0251V12.2135H68.4991L65.5717 8.49634V12.2135H63.1066V0.23982Z" fill="#9E9E9E"/>
<path d="M75.5752 3.56298C76.9904 3.56298 78.0575 3.83135 78.7765 4.36808C79.5069 4.89339 79.8721 5.73846 79.8721 6.90328V12.2135H77.5097V10.6718H77.4583C77.2301 11.1857 76.8592 11.5968 76.3456 11.9052C75.832 12.2135 75.2443 12.3677 74.5823 12.3677C73.715 12.3677 72.996 12.1221 72.4253 11.6311C71.8547 11.1286 71.5694 10.4605 71.5694 9.6269C71.5694 8.74757 71.8832 8.06239 72.5109 7.57133C73.15 7.08028 73.9718 6.83476 74.9761 6.83476C75.8549 6.83476 76.591 6.98321 77.1844 7.28013V7.10883C77.1844 6.10389 76.5339 5.60142 75.2329 5.60142C74.4568 5.60142 73.6008 5.7613 72.665 6.08105L72.1686 4.21391C73.2642 3.77996 74.3997 3.56298 75.5752 3.56298ZM75.4383 10.295C75.9062 10.295 76.3057 10.1693 76.6366 9.9181C76.9676 9.66687 77.1673 9.31856 77.2358 8.87319C76.7108 8.59912 76.1459 8.46208 75.541 8.46208C75.1416 8.46208 74.822 8.54202 74.5823 8.7019C74.3541 8.86177 74.24 9.09588 74.24 9.40421C74.24 9.68971 74.3541 9.91239 74.5823 10.0723C74.8106 10.2207 75.0959 10.295 75.4383 10.295Z" fill="#9E9E9E"/>
<path d="M81.529 3.76854H84.0113V4.69354C84.5477 3.93984 85.3009 3.56298 86.271 3.56298C87.0699 3.56298 87.7604 3.81993 88.3424 4.33382L87.3153 6.28661C86.9158 6.00111 86.465 5.85836 85.9629 5.85836C85.4036 5.85836 84.9357 6.03537 84.5591 6.38939C84.1825 6.73198 83.9942 7.2059 83.9942 7.81115V12.2135H81.529V3.76854Z" fill="#9E9E9E"/>
<path d="M91.3999 3.73428H88.9347V12.2135H91.3999V3.73428ZM89.1915 2.5352C88.9062 2.28397 88.7636 1.94137 88.7636 1.50742C88.7636 1.07347 88.9062 0.730872 89.1915 0.479636C89.4883 0.228401 89.8135 0.102783 90.1673 0.102783C90.5211 0.102783 90.8407 0.228401 91.126 0.479636C91.4227 0.730872 91.5711 1.07347 91.5711 1.50742C91.5711 1.94137 91.4227 2.28397 91.126 2.5352C90.8407 2.78644 90.5211 2.91205 90.1673 2.91205C89.8135 2.91205 89.4883 2.78644 89.1915 2.5352Z" fill="#9E9E9E"/>
<path d="M45.7804 30.6472C46.6877 30.6472 47.4838 30.356 48.1685 29.7736C48.8533 29.1911 49.1957 28.3946 49.1957 27.384C49.1957 26.2705 48.8618 25.4483 48.1942 24.9173C47.5266 24.3863 46.722 24.1207 45.7804 24.1207C44.8218 24.1207 44.06 24.4291 43.495 25.0458C42.9472 25.6624 42.6733 26.4418 42.6733 27.384C42.6733 28.3432 42.9558 29.1312 43.5207 29.7479C44.0856 30.3474 44.8389 30.6472 45.7804 30.6472ZM52.9704 39.3062H49.247V32.1888C48.2712 33.3879 46.9445 33.9875 45.2669 33.9875C43.3838 33.9875 41.8602 33.3965 40.6961 32.2145C39.532 31.0155 38.95 29.4053 38.95 27.384C38.95 25.414 39.5234 23.8295 40.6704 22.6305C41.8345 21.4143 43.3495 20.8062 45.2155 20.8062C47.0644 20.8062 48.4681 21.4228 49.4268 22.6562V21.0374H52.9704V39.3062Z" fill="black"/>
<path d="M61.7306 33.9875C59.625 33.9875 57.9387 33.3794 56.6719 32.1631C55.4222 30.9298 54.7974 29.3367 54.7974 27.384C54.7974 25.4483 55.4308 23.8552 56.6976 22.6048C57.9815 21.3543 59.6592 20.7291 61.7306 20.7291C63.8191 20.7291 65.4968 21.3543 66.7636 22.6048C68.0475 23.8552 68.6895 25.4483 68.6895 27.384C68.6895 29.3367 68.0561 30.9298 66.7892 32.1631C65.5396 33.3794 63.8533 33.9875 61.7306 33.9875ZM61.7306 30.6986C62.792 30.6986 63.588 30.3817 64.1187 29.7479C64.6665 29.0969 64.9404 28.309 64.9404 27.384C64.9404 26.4932 64.6665 25.7138 64.1187 25.0458C63.5709 24.3777 62.7748 24.0437 61.7306 24.0437C60.7034 24.0437 59.916 24.3777 59.3682 25.0458C58.8204 25.7138 58.5465 26.4932 58.5465 27.384C58.5465 28.2747 58.8118 29.0541 59.3425 29.7222C59.8903 30.3731 60.6863 30.6986 61.7306 30.6986Z" fill="black"/>
<path d="M83.4024 33.7048H79.679V26.9985C79.679 25.0286 78.806 24.0437 77.0598 24.0437C76.221 24.0265 75.5277 24.3263 74.9799 24.943C74.4492 25.5596 74.1839 26.2962 74.1839 27.1527V33.7048H70.5375V21.0117H74.0041V22.6305C75.0141 21.3115 76.3836 20.6691 78.1127 20.7034C81.6392 20.7034 83.4024 22.7932 83.4024 26.9728V33.7048Z" fill="black"/>
<path d="M87.1441 17.5429H90.8418V21.0888H94.0516V24.1721H90.8161V28.9513C90.8161 30.0819 91.2954 30.6472 92.2541 30.6472C92.8704 30.6472 93.3839 30.5444 93.7948 30.3388L94.6422 33.4222C93.8034 33.7476 92.9132 33.9361 91.9716 33.9875C90.4823 34.056 89.3011 33.7048 88.428 32.934C87.572 32.146 87.1441 30.8185 87.1441 28.9513V24.1721H84.8844V21.0888H87.1441V17.5429Z" fill="black"/>
<path d="M101.202 20.7291C103.324 20.7291 104.925 21.1316 106.004 21.9367C107.099 22.7247 107.647 23.9923 107.647 25.7395V33.7048H104.103V31.3923H104.026C103.684 32.1631 103.128 32.7798 102.357 33.2423C101.587 33.7048 100.705 33.9361 99.7123 33.9361C98.4112 33.9361 97.3327 33.5678 96.4768 32.8312C95.6208 32.0775 95.1929 31.0754 95.1929 29.8249C95.1929 28.506 95.6636 27.4782 96.6052 26.7416C97.5639 26.005 98.7964 25.6367 100.303 25.6367C101.621 25.6367 102.725 25.8594 103.615 26.3048V26.0478C103.615 24.5404 102.64 23.7867 100.688 23.7867C99.524 23.7867 98.2401 24.0265 96.8363 24.5062L96.0916 21.7055C97.735 21.0545 99.4384 20.7291 101.202 20.7291ZM100.996 30.827C101.698 30.827 102.297 30.6386 102.794 30.2617C103.29 29.8849 103.59 29.3624 103.692 28.6944C102.905 28.2833 102.058 28.0777 101.15 28.0777C100.551 28.0777 100.072 28.1976 99.7123 28.4374C99.3699 28.6773 99.1987 29.0284 99.1987 29.4909C99.1987 29.9192 99.3699 30.2532 99.7123 30.493C100.055 30.7157 100.483 30.827 100.996 30.827Z" fill="black"/>
<path d="M110.132 15.7443H113.83V25.9965L117.579 21.0374H121.944V21.2687L117.297 26.9985L122.663 33.4222V33.7048H118.221L113.83 28.1291V33.7048H110.132V15.7443Z" fill="black"/>
</svg>
