<svg width="148" height="40" viewBox="0 0 148 40" fill="none" xmlns="http://www.w3.org/2000/svg">
<path d="M49.4178 12.2132H46.9853V7.67387C46.9853 6.44053 46.5 5.82386 45.5293 5.82386C45.0611 5.82386 44.69 6.00658 44.4159 6.37201C44.1418 6.73744 44.0048 7.17711 44.0048 7.691V12.2132H41.5381V3.75117H43.8677V4.71043C44.3017 3.9453 45.044 3.56274 46.0946 3.56274C47.2708 3.56274 48.0931 4.08805 48.5613 5.13867C48.9381 4.56768 49.3435 4.16228 49.7775 3.92246C50.2114 3.67123 50.7424 3.54561 51.3705 3.54561C52.3755 3.54561 53.1863 3.85394 53.803 4.47061C54.431 5.08728 54.7451 6.12648 54.7451 7.58822V12.2132H52.2613V7.63961C52.2613 6.46337 51.833 5.87525 50.9766 5.87525C50.5083 5.87525 50.1315 6.05226 49.846 6.40627C49.5605 6.74886 49.4178 7.1714 49.4178 7.67387V12.2132Z" fill="#9E9E9E"/>
<path d="M64.5817 7.691C64.5817 8.05643 64.5474 8.41045 64.4789 8.75304H58.552C58.6206 9.24409 58.8604 9.63236 59.2715 9.91786C59.6826 10.1919 60.1451 10.329 60.659 10.329C61.5269 10.329 62.292 10.0663 62.9544 9.54101L64.1021 11.1341C63.2227 11.9791 62.0294 12.4017 60.5219 12.4017C59.1516 12.4017 58.0267 12.0248 57.1474 11.2711C56.2795 10.506 55.8455 9.41539 55.8455 7.99933C55.8455 6.60612 56.2909 5.52124 57.1817 4.74469C58.0838 3.95672 59.163 3.56274 60.4192 3.56274C61.6525 3.56274 62.6517 3.92817 63.4169 4.65904C64.1934 5.37849 64.5817 6.38914 64.5817 7.691ZM61.5669 6.01229C61.2471 5.72679 60.8417 5.58404 60.3507 5.58404C59.8596 5.58404 59.4485 5.72679 59.1173 6.01229C58.7861 6.28636 58.5977 6.69176 58.552 7.2285H62.0294C62.0408 6.69176 61.8866 6.28636 61.5669 6.01229Z" fill="#9E9E9E"/>
<path d="M65.7098 0.239576H68.1765V7.07433L70.6775 3.7683H73.5895V3.92246L70.489 7.74239L74.0691 12.0248V12.2132H71.1057L68.1765 8.49609V12.2132H65.7098V0.239576Z" fill="#9E9E9E"/>
<path d="M78.1863 3.56274C79.6023 3.56274 80.6701 3.8311 81.3895 4.36784C82.1204 4.89315 82.4858 5.73821 82.4858 6.90303V12.2132H80.1219V10.6716H80.0706C79.8422 11.1855 79.471 11.5966 78.9571 11.9049C78.4432 12.2132 77.8551 12.3674 77.1928 12.3674C76.3249 12.3674 75.6054 12.1219 75.0344 11.6308C74.4634 11.1284 74.1779 10.4603 74.1779 9.62665C74.1779 8.74733 74.492 8.06214 75.1201 7.57109C75.7596 7.08004 76.5818 6.83451 77.5868 6.83451C78.4661 6.83451 79.2026 6.98297 79.7965 7.27988V7.10859C79.7965 6.10365 79.1455 5.60117 77.8437 5.60117C77.0671 5.60117 76.2107 5.76105 75.2742 6.08081L74.7775 4.21367C75.8738 3.77972 77.01 3.56274 78.1863 3.56274ZM78.0492 10.2947C78.5175 10.2947 78.9172 10.1691 79.2483 9.91786C79.5795 9.66662 79.7794 9.31832 79.8479 8.87295C79.3226 8.59887 78.7573 8.46183 78.152 8.46183C77.7523 8.46183 77.4326 8.54177 77.1928 8.70165C76.9644 8.86153 76.8502 9.09563 76.8502 9.40397C76.8502 9.68946 76.9644 9.91215 77.1928 10.072C77.4212 10.2205 77.7067 10.2947 78.0492 10.2947Z" fill="#9E9E9E"/>
<path d="M84.1438 3.7683H86.6276V4.6933C87.1643 3.93959 87.9181 3.56274 88.8887 3.56274C89.6881 3.56274 90.379 3.81969 90.9614 4.33358L89.9337 6.28636C89.534 6.00087 89.0829 5.85812 88.5804 5.85812C88.0208 5.85812 87.5526 6.03513 87.1758 6.38914C86.7989 6.73173 86.6105 7.20566 86.6105 7.8109V12.2132H84.1438V3.7683Z" fill="#9E9E9E"/>
<path d="M94.0208 3.73404H91.5541V12.2132H94.0208V3.73404ZM91.8111 2.53496C91.5256 2.28372 91.3829 1.94113 91.3829 1.50717C91.3829 1.07322 91.5256 0.730628 91.8111 0.479392C92.108 0.228157 92.4335 0.102539 92.7875 0.102539C93.1415 0.102539 93.4613 0.228157 93.7467 0.479392C94.0437 0.730628 94.1921 1.07322 94.1921 1.50717C94.1921 1.94113 94.0437 2.28372 93.7467 2.53496C93.4613 2.78619 93.1415 2.91181 92.7875 2.91181C92.4335 2.91181 92.108 2.78619 91.8111 2.53496Z" fill="#9E9E9E"/>
<path d="M49.9908 21.0523C48.4184 21.0523 47.1038 21.542 46.047 22.5215V16H42V34.0438H45.5056L45.7634 32.5229C46.846 33.7087 48.2638 34.3015 49.9908 34.3015C51.7694 34.3015 53.2387 33.6829 54.3986 32.4456C55.5328 31.2341 56.0999 29.6359 56.0999 27.6769C56.0999 25.7179 55.5328 24.1197 54.3986 22.8824C53.2387 21.6709 51.7694 21.0523 49.9908 21.0523ZM46.8718 29.9968C46.3047 29.4039 46.0212 28.6306 46.0212 27.6769C46.0212 26.7232 46.3047 25.9498 46.8718 25.357C47.4131 24.7641 48.1349 24.4548 49.0371 24.4548C49.9393 24.4548 50.661 24.7383 51.2281 25.3312C51.7952 25.9241 52.0787 26.7232 52.0787 27.6769C52.0787 28.6306 51.7952 29.4039 51.2281 29.9968C50.661 30.5897 49.9393 30.899 49.0371 30.899C48.1349 30.899 47.4131 30.5897 46.8718 29.9968Z" fill="black"/>
<path d="M62.6148 21.0265C64.7457 21.0265 66.3524 21.4303 67.4351 22.238C68.5349 23.0285 69.0848 24.3001 69.0848 26.053V34.0438H65.3987C65.3987 33.3564 65.4417 32.5831 65.5276 31.7239H65.4502C65.1066 32.4972 64.5481 33.1158 63.7748 33.5798C63.0014 34.0438 62.1164 34.2758 61.1197 34.2758C59.8137 34.2758 58.7311 33.9063 57.8719 33.1673C57.0126 32.4112 56.583 31.4059 56.583 30.1515C56.583 28.8283 57.0556 27.7972 58.0007 27.0582C58.9631 26.3193 60.2004 25.9498 61.7126 25.9498C63.0358 25.9498 64.1442 26.1732 65.0378 26.62V26.3623C65.0378 24.85 64.0583 24.0939 62.0993 24.0939C60.9307 24.0939 59.6419 24.3345 58.2327 24.8157L57.4852 22.006C59.1349 21.353 60.8448 21.0265 62.6148 21.0265ZM62.4086 31.1568C63.1131 31.1568 63.7146 30.9677 64.213 30.5897C64.7113 30.2116 65.012 29.6875 65.1151 29.0173C64.3247 28.6049 63.474 28.3986 62.5632 28.3986C61.9618 28.3986 61.4806 28.5189 61.1197 28.7595C60.7761 29.0001 60.6042 29.3524 60.6042 29.8164C60.6042 30.246 60.7761 30.5811 61.1197 30.8217C61.4634 31.0451 61.893 31.1568 62.4086 31.1568Z" fill="black"/>
<path d="M77.3666 34.3273C79.3514 34.3273 81.0527 33.6313 82.4704 32.2136L80.1762 29.7906C79.4287 30.5381 78.5523 30.899 77.4955 30.899C75.6138 30.899 74.3507 29.6102 74.3507 27.6769C74.3507 25.7436 75.6395 24.4548 77.4955 24.4548C78.475 24.4548 79.3256 24.7899 80.0474 25.4601L82.2899 23.0113C80.9238 21.6967 79.2483 21.0265 77.2892 21.0265C75.2013 21.0265 73.5258 21.6451 72.2628 22.8566C70.9739 24.0939 70.3295 25.7179 70.3295 27.7027C70.3295 29.739 70.9739 31.3372 72.237 32.5229C73.5001 33.7344 75.2271 34.3273 77.3666 34.3273Z" fill="black"/>
<path d="M90.9401 27.3418L95.5283 21.31H90.9143L87.3829 26.1303V16H83.3617V34.0438H87.3829V28.9915L91.2752 34.0438H96.2759L90.9401 27.3418Z" fill="black"/>
<path d="M103.771 25.3312L102.276 29.4813L100.884 25.3312L99.415 21.31H95.0587L100.008 33.8633L97.5333 39.56H101.838L109.777 21.31H105.395L103.771 25.3312Z" fill="black"/>
<path d="M115.582 21.0265C117.713 21.0265 119.32 21.4303 120.402 22.238C121.502 23.0285 122.052 24.3001 122.052 26.053V34.0438H118.366C118.366 33.3564 118.409 32.5831 118.495 31.7239H118.418C118.074 32.4972 117.515 33.1158 116.742 33.5798C115.969 34.0438 115.084 34.2758 114.087 34.2758C112.781 34.2758 111.698 33.9063 110.839 33.1673C109.98 32.4112 109.55 31.4059 109.55 30.1515C109.55 28.8283 110.023 27.7972 110.968 27.0582C111.93 26.3193 113.168 25.9498 114.68 25.9498C116.003 25.9498 117.112 26.1732 118.005 26.62V26.3623C118.005 24.85 117.026 24.0939 115.067 24.0939C113.898 24.0939 112.609 24.3345 111.2 24.8157L110.453 22.006C112.102 21.353 113.812 21.0265 115.582 21.0265ZM115.376 31.1568C116.08 31.1568 116.682 30.9677 117.18 30.5897C117.679 30.2116 117.979 29.6875 118.082 29.0173C117.292 28.6049 116.441 28.3986 115.531 28.3986C114.929 28.3986 114.448 28.5189 114.087 28.7595C113.743 29.0001 113.572 29.3524 113.572 29.8164C113.572 30.246 113.743 30.5811 114.087 30.8217C114.431 31.0451 114.86 31.1568 115.376 31.1568Z" fill="black"/>
<path d="M131.262 21.0265C129.818 21.0265 128.684 21.6451 127.859 22.9082L127.55 21.31H124.019V34.0438H128.066V27.8573C128.066 25.7179 129.122 24.6095 130.849 24.6095C131.494 24.6095 132.164 24.8157 132.834 25.2539L134.535 22.2895C133.685 21.4389 132.576 21.0265 131.262 21.0265Z" fill="black"/>
<path d="M143.847 22.5215C142.79 21.542 141.476 21.0523 139.903 21.0523C138.125 21.0523 136.655 21.6709 135.521 22.8824C134.387 24.1197 133.82 25.7179 133.82 27.6769C133.82 29.6359 134.387 31.2341 135.521 32.4456C136.655 33.6829 138.125 34.3015 139.903 34.3015C141.63 34.3015 143.048 33.7087 144.131 32.5229L144.388 34.0438H147.894V16H143.847V22.5215ZM138.692 29.9968C138.125 29.4039 137.841 28.6306 137.841 27.6769C137.841 26.7232 138.125 25.9498 138.692 25.357C139.233 24.7641 139.955 24.4548 140.857 24.4548C141.759 24.4548 142.481 24.7383 143.048 25.3312C143.615 25.9241 143.899 26.7232 143.899 27.6769C143.899 28.6306 143.615 29.4039 143.048 29.9968C142.481 30.5897 141.759 30.899 140.857 30.899C139.955 30.899 139.233 30.5897 138.692 29.9968Z" fill="black"/>
<path d="M25.7109 6.47239L23.3963 13.2991L30.4498 14.686C31.6834 14.9208 32.5795 15.8037 32.5817 17.0097C32.5838 18.2157 31.6597 19.0642 30.4605 19.3118L23.3985 20.7009L25.7109 27.5276C26.1236 28.7034 25.8334 29.9224 24.789 30.521C23.7552 31.1133 22.5732 30.7558 21.7415 29.8233L16.9984 24.4028L12.2552 29.8233C11.445 30.7429 10.2501 31.124 9.20778 30.521C8.16545 29.918 7.87532 28.7164 8.28581 27.5276L10.5983 20.7009L3.53623 19.314C2.33702 19.0663 1.41289 18.2178 1.41504 17.0118C1.41719 15.808 2.31338 14.9229 3.54698 14.6882L10.5983 13.2991L8.28581 6.47239C7.87317 5.29655 8.16331 4.07764 9.20778 3.47896C10.2415 2.88673 11.4235 3.24422 12.2552 4.17671L16.9984 9.59718L21.7415 4.17671C22.5517 3.25714 23.7466 2.87596 24.789 3.47896C25.8313 4.08195 26.1214 5.28363 25.7109 6.47239Z" fill="#651FFF"/>
</svg>
